# xmcd CD database file generated by OrangeCD 5.2
#
# Track frame offsets:
#	150
#	13608
#	31552
#	50388
#	64393
#	74993
#	87842
#	106502
#	122223
#	140536
#	152002
#	168042
#	180171
#	192522
#	208474
#	222501
#	235417
#	256194
#
# Disc length: 3623 seconds
#
# Revision: 0
# Processed by: cddbd v1.5.1PL0 Copyright (c) Steve Scherf et al.
# Submitted via: OrangeCD 5.2
#
DISCID=000e2512
DTITLE=Ike and Tina Turner - Come Together
DYEAR=2001
DGENRE=Soul
TTITLE0=Nutbush City Limits
TTITLE1=River Deep Mountain High
TTITLE2=Something
TTITLE3=Sweet Rhode Island Red
TTITLE4=The Loco-motion
TTITLE5=Shake
TTITLE6=Philadelphia Freedom
TTITLE7=Come Together
TTITLE8=I Idolise You
TTITLE9=Ain't That A Shame
TTITLE10=Living For The City
TTITLE11=Use Me
TTITLE12=Stagger Lee
TTITLE13=I Can't Stop Loving You
TTITLE14=Ooh-poo--pah-do
TTITLE15=I Want To Take You Higher
TTITLE16=Never Been To Spain
TTITLE17=Why I Sing The Blues
EXTD=
EXTT0=
EXTT1=
EXTT2=
EXTT3=
EXTT4=
EXTT5=
EXTT6=
EXTT7=
EXTT8=
EXTT9=
EXTT10=
EXTT11=
EXTT12=
EXTT13=
EXTT14=
EXTT15=
EXTT16=
EXTT17=
PLAYORDER=
